<svg width="43" height="47" viewBox="0 0 43 47" fill="none" xmlns="http://www.w3.org/2000/svg">
<path fill-rule="evenodd" clip-rule="evenodd" d="M21.5467 13.1878C23.2565 13.1878 24.9677 13.1786 26.6776 13.1971C27.0032 13.2024 27.3237 13.27 27.617 13.3951C30.8219 14.8601 33.6292 16.9219 35.8454 19.4382C38.9782 22.7128 41.2274 26.5741 42.4228 30.7301C43.231 33.1321 43.1954 35.6943 42.3206 38.0781C41.2283 40.5377 39.0878 42.5204 36.359 43.6002C33.4986 44.849 30.3953 45.6051 27.2148 45.828C24.5086 46.0535 21.7912 46.1586 19.073 46.1429C15.161 46.2017 11.2742 45.5788 7.63461 44.31C4.65026 43.3636 2.23242 41.3816 0.940565 38.8227C0.00394566 36.8239 -0.240046 34.6243 0.23954 32.5028C1.71596 25.1429 6.47303 18.6145 13.4443 14.3816C14.7103 13.4836 16.3178 13.0489 17.9357 13.167C19.1382 13.2285 20.3433 13.2355 21.5466 13.1878H21.5467Z" fill="#DD50F2"/>
<path fill-rule="evenodd" clip-rule="evenodd" d="M27.107 10.6938H15.9516C15.704 8.19617 13.9155 6.59826 11.8099 5.23309C10.6978 4.5458 9.53956 3.91861 8.34176 3.35496C7.37219 2.87329 7.22809 2.31287 8.02468 1.61812C8.90116 0.930619 9.98004 0.476564 11.1365 0.308522C13.8893 -0.165357 16.7278 -0.0826165 19.4394 0.550523C21.3878 0.930319 23.3505 1.25799 25.3173 1.5498C27.0609 1.70839 28.8229 1.54312 30.4901 1.06463C31.6903 0.79832 32.8629 0.434726 34.0422 0.0966274C34.7156 -0.0955849 35.1519 -0.00757966 35.4062 0.41969C35.6604 0.84696 35.5175 1.23601 34.9502 1.59844C32.6401 3.00186 30.5981 4.72168 28.9007 6.69321C27.8741 7.8436 27.2506 9.2342 27.107 10.6938V10.6938Z" fill="#DD50F2"/>
<path d="M14.4178 22.6364H22.2793L14.4178 29.5838H22.2793V36.5312H30.1408" stroke="#3A205A" stroke-width="2.31581"/>
</svg>
