<svg width="46" height="46" viewBox="0 0 46 46" fill="none" xmlns="http://www.w3.org/2000/svg">
<path fill-rule="evenodd" clip-rule="evenodd" d="M22.9609 45.9967C18.1364 46.0422 13.3263 45.5699 8.66122 44.5928C6.56121 44.1893 4.56004 43.5123 2.7389 42.5896C2.01595 42.1793 1.35402 41.7052 0.765724 41.1765C0.213159 40.6653 -0.0587786 39.9998 0.0106541 39.3286C0.152153 33.3502 5.40912 28.2179 12.7542 26.8873C13.3423 26.7388 13.9844 26.8238 14.48 27.1156C16.7943 28.3725 19.5326 29.0459 22.3368 29.048C24.695 29.1658 27.0554 28.8466 29.2313 28.1155C30.1848 27.7628 31.0693 27.2925 31.9926 26.8874C32.1491 26.8112 32.3314 26.7753 32.5146 26.7847C39.0037 27.7019 44.161 31.6262 45.589 36.7331C45.7787 37.5585 45.9121 38.3914 45.9887 39.2282C46.0764 40.1153 45.6484 40.9855 44.8267 41.5909C43.5999 42.5305 42.1397 43.257 40.5396 43.7242C37.9141 44.5546 35.1725 45.1321 32.3737 45.4443C29.2605 45.8323 26.1123 46.017 22.9609 45.9967L22.9609 45.9967Z" fill="#4CAE48"/>
<path fill-rule="evenodd" clip-rule="evenodd" d="M7.60447 7.08656C7.58437 7.38332 7.56848 7.57964 7.93952 7.72574C8.21243 7.83792 8.39079 8.05594 8.40879 8.29949C8.42678 8.54303 8.28177 8.77608 8.02721 8.91281C7.84665 8.99211 7.74825 9.15288 7.78126 9.31458C7.99983 11.6191 8.18398 13.927 8.43705 16.2292C8.45461 17.225 8.19891 18.2119 7.68777 19.1215C7.65758 19.1911 7.54399 19.2357 7.4692 19.295C7.40592 19.2414 7.30954 19.1969 7.28224 19.1341C6.75416 18.1713 6.50496 17.1267 6.55315 16.0774C6.81341 14.0651 6.92989 12.0402 7.10677 10.0211C7.12116 9.8556 7.14995 9.69124 7.16716 9.52573C7.25494 9.27102 7.13328 8.99991 6.86239 8.8466C6.63733 8.69796 6.52462 8.4677 6.56438 8.23742C6.60415 8.00714 6.79068 7.8094 7.05796 7.71432C7.43322 7.58194 7.37142 7.34337 7.38862 7.14363C7.38862 7.06145 7.14987 6.94617 6.99599 6.88225C6.65225 6.73842 6.27691 6.64256 5.94616 6.48049C5.39676 6.20654 5.39245 5.79564 5.95476 5.53881C6.46774 5.31937 6.9959 5.1231 7.53671 4.95099C11.9893 3.41846 16.4432 1.88822 20.8987 0.360277C22.2231 -0.117683 23.7425 -0.120173 25.0694 0.353415C29.9199 2.01759 34.7693 3.68252 39.6178 5.34821C40.0031 5.48061 40.4519 5.61987 40.4463 6.01251C40.4406 6.40514 39.9947 6.53641 39.6078 6.66994C38.0517 7.2064 36.4971 7.74401 34.9352 8.26792C34.6922 8.32128 34.5351 8.50765 34.5655 8.70622C34.5842 9.79055 34.5382 10.8749 34.5914 11.9592C34.6657 12.3948 34.7893 12.8242 34.961 13.2422C35.7708 16.1408 35.0661 19.1762 33.0079 21.6554C31.552 23.6854 29.2617 25.2569 26.5204 26.1069C23.0837 27.1746 19.1839 26.6356 16.4043 24.7087C13.3027 22.7818 11.2866 19.9599 10.7955 16.8581C10.5311 15.3844 10.704 13.882 11.3003 12.4706C11.3769 12.2828 11.4177 12.087 11.4211 11.8896C11.4326 10.827 11.4211 9.7643 11.4326 8.70166C11.4697 8.51473 11.3263 8.33495 11.0975 8.28162C9.95439 7.90268 8.81248 7.49975 7.60447 7.08656V7.08656Z" fill="#4CAE48"/>
</svg>
