<svg width="36" height="36" viewBox="0 0 36 36" fill="none" xmlns="http://www.w3.org/2000/svg">
<path fill-rule="evenodd" clip-rule="evenodd" d="M25.7035 0.00315024C25.8881 0.356312 26.0529 0.7391 26.1957 1.14629C26.3695 1.91387 26.8168 2.38808 27.2908 2.30711C27.8034 2.24016 28.3122 2.0677 28.821 1.92493C30.8753 1.44737 32.8036 3.74557 33.2789 7.23784C33.3248 7.73377 33.3011 8.24143 33.2099 8.71819C33.0449 9.62526 32.8185 10.4994 32.6167 11.3867C32.4263 12.2191 32.2677 12.3103 31.7749 11.8458L31.87 11.2253L31.6016 10.9573L31.3809 11.6371L28.6802 9.79879L28.814 9.10473L28.5063 8.89172L28.3337 9.49791C27.7786 9.27277 27.6993 9.02021 27.8973 8.1362C28.1124 7.17531 28.3331 6.21884 28.5818 5.12397C28.2707 5.04125 27.956 5.00452 27.6411 5.01418C26.3088 5.26787 25.1302 2.59821 25.0293 1.05091C25.0078 0.721472 25.191 0.351352 25.283 0L25.7035 0.00315024ZM32.9357 7.52767C32.9228 7.33188 32.9036 7.13757 32.8779 6.94561C32.3113 3.82044 30.4696 1.94571 28.6165 2.60793C28.1599 2.79004 27.6939 2.89232 27.2253 2.91317C26.6408 2.98797 26.0973 2.38895 25.8893 1.44053C25.8385 1.21398 25.7692 1.00131 25.6832 0.809075C25.635 0.711351 25.5234 0.708067 25.4396 0.661952C25.4108 0.783337 25.3936 0.912095 25.3888 1.04306C25.6316 2.89306 26.5459 4.24934 27.639 4.38138C28.1203 4.36121 28.5981 4.52348 29.0392 4.85686C30.3024 5.76293 31.5851 6.60411 32.9332 7.52324L32.9357 7.52767Z" fill="#4CAE48"/>
<path fill-rule="evenodd" clip-rule="evenodd" d="M18.6593 16.5679L19.8469 15.3599C20.1934 15.7761 20.5625 16.1328 20.9489 16.4251C21.4509 16.6877 21.9926 16.5893 22.4522 16.1521C22.9115 15.7148 23.25 14.9757 23.3907 14.1015C23.4522 13.7844 23.5617 13.5018 23.7079 13.2832C24.1438 12.6332 24.596 12.0193 25.056 11.4164C25.2027 11.2719 25.2557 10.9507 25.1753 10.6938C24.9564 9.68677 24.7534 8.66877 24.5517 7.65184C24.421 6.99298 24.5239 6.52406 24.8265 6.33404C25.1291 6.14402 25.3873 6.39336 25.5244 7.04237C25.7914 8.32171 26.0446 9.60989 26.3168 10.8859C26.4543 11.4042 26.3451 12.0186 26.0631 12.3135C25.5213 13.0306 25.0017 13.7949 24.4593 14.5098C24.2771 14.6978 24.1949 15.0794 24.2613 15.4279C24.5353 17.6726 24.8133 19.9194 25.0277 22.1827C25.0707 22.9443 25.0401 23.713 24.9369 24.457C24.8384 25.1573 24.7148 25.8465 24.5671 26.5204L26.4608 25.8143C26.6213 25.7539 26.778 25.6803 26.9429 25.6309C27.1886 25.5017 27.4542 25.5577 27.6748 25.7852C27.8953 26.0126 28.0502 26.3903 28.1013 26.8257C28.142 27.2536 28.0796 27.6917 27.9288 28.0378C27.7778 28.384 27.5515 28.608 27.3026 28.6574C26.3161 29.0375 25.3283 29.402 24.3413 29.7732C24.0659 29.8775 23.7913 29.9929 23.5165 30.0895C23.186 30.2651 22.8265 30.0975 22.5914 29.6582C22.3564 29.2189 22.2875 28.5855 22.4141 28.0283C22.5014 27.5067 22.6043 26.9916 22.6956 26.4733L22.6018 26.3458C22.2332 27.0124 21.8608 27.6724 21.5018 28.3533C21.4445 28.5059 21.4084 28.6796 21.3965 28.8606C21.1332 30.7351 20.8756 32.6119 20.6111 34.4854C20.5776 34.9145 20.444 35.3011 20.2414 35.5551C20.0388 35.809 19.785 35.9082 19.539 35.8295C19.2755 35.7305 19.0507 35.4361 18.9238 35.0243C18.797 34.6126 18.7812 34.1252 18.8804 33.6914C19.1126 31.9925 19.421 30.3135 19.5681 28.5926C19.74 27.1506 20.2195 25.8738 20.9112 25.017C21.2024 24.6593 21.3211 24.0105 21.2018 23.428C20.9193 21.4173 20.717 19.3725 20.4816 17.3408C20.4664 17.2058 20.4404 17.0751 20.4054 16.8599C19.929 17.3518 19.4805 17.8185 19.0294 18.2787C18.6196 18.6971 18.4743 18.6784 18.1184 18.1293C17.3995 17.0187 16.6827 15.903 15.9679 14.7822C15.6507 14.2891 15.6138 13.7785 15.8474 13.3546C16.0701 12.9505 16.3549 12.9768 16.6562 13.4457C17.3182 14.4825 17.9818 15.5159 18.6593 16.5679Z" fill="#4CAE48"/>
<path fill-rule="evenodd" clip-rule="evenodd" d="M12.4255 18.1006C12.6691 21.7114 13.9691 24.123 15.1901 26.6729C14.1445 28.1002 12.9197 29.082 11.6147 29.539C10.5806 29.862 9.51731 29.7715 8.50624 29.2744C8.18517 29.0908 7.88005 28.8321 7.59926 28.5057C7.42269 28.3212 7.4151 28.0533 7.57494 27.749C8.12121 26.7113 8.65338 25.6537 9.18509 24.5918C9.27197 24.4362 9.32773 24.2364 9.3443 24.0219C9.357 22.4844 9.35127 20.9471 9.35127 19.3943C8.99799 19.7106 8.57098 20.0685 8.15791 20.4716C7.91537 20.7356 7.60762 20.7415 7.36182 20.4869C6.71721 19.9005 6.04982 19.3888 5.41744 18.765C5.24444 18.5558 5.1385 18.2177 5.13153 17.8524C5.1447 17.5955 5.37377 17.3111 5.54367 17.1639C5.63567 17.0837 5.8127 17.232 5.93567 17.3341C6.44322 17.7558 6.95077 18.1786 7.44809 18.6442C7.63891 18.8413 7.87789 18.8332 8.06405 18.6234C8.81585 17.9546 9.56439 17.2639 10.3434 16.7005C11.6361 15.8579 13.0869 16.1919 14.2074 17.5901C14.6333 18.1988 15.004 18.9147 15.3069 19.7139C15.468 20.0378 15.6292 20.3618 15.7776 20.7023C15.8695 20.8679 15.9151 21.0944 15.9031 21.3231C15.8908 21.5517 15.8219 21.76 15.7141 21.8937C15.619 22.0552 15.4877 22.1362 15.3551 22.115C15.2224 22.0939 15.1017 21.9728 15.0252 21.784C14.6381 21.0153 14.248 20.2543 13.8922 19.4471C13.5365 18.64 13.0021 18.4839 12.4255 18.1006Z" fill="#4CAE48"/>
<path fill-rule="evenodd" clip-rule="evenodd" d="M3.03987 22.9395C3.31122 23.1016 3.57328 23.3075 3.82264 23.5544C4.6226 24.5186 5.39979 25.5421 6.19341 26.5195C6.39785 26.7157 6.48071 27.1508 6.38391 27.5188C6.04921 29.1361 5.45354 30.5532 4.66752 31.6017C4.47825 31.9052 4.18475 31.8985 4.00029 31.5865C3.25298 30.598 2.48338 29.6624 1.72725 28.696C1.39286 28.3502 1.16425 27.7656 1.10308 27.0996C1.04174 26.4338 1.15419 25.7552 1.41005 25.2467C1.59405 24.7986 1.77991 24.3539 1.97599 23.9223C2.23944 23.3595 2.62324 23.005 3.03987 22.9395ZM5.01018 25.7639C4.78544 25.9288 4.57604 26.1508 4.3891 26.4227C4.04604 27.1401 3.72575 27.8894 3.42992 28.6674C3.26188 29.0819 3.24345 29.6252 3.38237 30.0708C3.6006 28.3215 4.35813 27.186 5.01219 25.7639H5.01018ZM3.99496 30.2357C4.45806 29.1375 4.90334 28.0855 5.34057 27.0246C5.35962 26.9774 5.30371 26.839 5.27707 26.7226C4.73731 27.6297 3.90064 29.8238 3.99822 30.2345L3.99496 30.2357Z" fill="#4CAE48"/>
<path fill-rule="evenodd" clip-rule="evenodd" d="M23.2502 13.158C23.2522 14.8258 22.4829 16.1901 21.5195 16.2273C20.5432 16.2329 19.7448 14.8819 19.7257 13.192C19.7313 11.5254 20.5012 10.1686 21.4638 10.1292C21.9332 10.1178 22.386 10.4312 22.7213 10.9999C23.0567 11.5685 23.2471 12.3454 23.2502 13.158ZM21.4053 15.025C21.5372 15.0023 21.6659 14.9411 21.786 14.8439C21.8894 14.6791 21.9754 14.4839 22.0397 14.2673C21.928 14.1959 21.8182 14.1092 21.7034 14.0576C21.3227 13.8873 20.9459 13.7215 20.5653 13.5722C20.4405 13.5371 20.3144 13.5165 20.1879 13.5106C20.219 13.7511 20.2082 14.0499 20.2887 14.2233C20.5782 14.7522 20.9841 15.0423 21.4048 15.0207L21.4053 15.025Z" fill="#4CAE48"/>
<path fill-rule="evenodd" clip-rule="evenodd" d="M9.93067 10.3433C10.3873 10.345 10.8248 10.6607 11.1468 11.2209C11.469 11.7811 11.6492 12.5399 11.648 13.3302C11.6322 14.9517 10.872 16.2555 9.93517 16.2678C8.98497 16.2758 8.20932 14.9542 8.19879 13.3094C8.20685 11.6646 8.98048 10.3396 9.93067 10.3433ZM8.91558 14.1506L8.83566 14.3252C8.94098 14.5449 9.03035 14.9029 9.15286 14.9413C9.47919 15.0577 9.81482 15.0711 10.1438 14.9808C10.3702 14.8368 10.5727 14.5984 10.7331 14.2867C10.7889 14.2011 10.7622 13.9573 10.7731 13.7827C10.6792 13.7529 10.5833 13.747 10.4884 13.7651C10.2592 13.9129 10.0248 14.0361 9.78679 14.1342C9.49577 14.173 9.20366 14.1785 8.91233 14.1507L8.91558 14.1506Z" fill="#4CAE48"/>
<path fill-rule="evenodd" clip-rule="evenodd" d="M11.5901 30.1517C12.2974 29.7124 12.9451 29.3017 13.5974 28.914C13.6946 28.8668 13.7982 28.876 13.8922 28.9404C14.6114 29.4316 15.3285 29.9338 16.0437 30.4471C16.2599 30.565 16.4382 30.8327 16.5362 31.1864C16.6343 31.5401 16.6434 31.9483 16.5613 32.314C16.475 32.6755 16.3065 32.9595 16.0954 33.0992C15.8845 33.2388 15.6495 33.2218 15.4459 33.0519C14.2918 32.2546 13.1411 31.4442 11.9937 30.6206C11.8504 30.488 11.7152 30.3308 11.5901 30.1517Z" fill="#4CAE48"/>
<path fill-rule="evenodd" clip-rule="evenodd" d="M7.72147 29.3647L9.29862 30.0906C9.00295 31.6818 8.70419 33.317 8.39396 34.9456C8.29484 35.6029 7.93923 36.0445 7.54769 35.9965C7.18356 35.9454 6.88402 35.4784 6.81696 34.8566C6.79373 34.6791 6.79512 34.4947 6.8213 34.3185C7.1182 32.6537 7.42394 30.9944 7.72147 29.3647Z" fill="#4CAE48"/>
<path fill-rule="evenodd" clip-rule="evenodd" d="M31.1888 11.8863C31.2916 12.1894 31.3289 12.4431 31.4164 12.5145C31.4837 12.5694 31.6138 12.397 31.7679 12.2948L32.2195 12.5529L31.9658 13.6752L27.4679 10.6201L27.7216 9.50439L28.1656 9.83933C28.2291 10.0886 28.2494 10.3599 28.3173 10.4005C28.4068 10.4554 28.5336 10.3302 28.6408 10.1534L31.1888 11.8863Z" fill="#4CAE48"/>
<path fill-rule="evenodd" clip-rule="evenodd" d="M14.4128 13.4094C14.3927 13.8632 14.2524 14.2753 14.0324 14.5252C13.8127 14.775 13.5384 14.8341 13.2899 14.6854C12.8045 14.3407 12.3472 13.8881 11.9292 13.339C11.796 13.171 11.815 12.6439 11.7611 12.2607C12.111 12.1367 12.4748 12.2844 12.7564 12.6648C12.9717 12.9085 13.1739 13.1864 13.3909 13.4335C13.7219 13.8058 14.0626 14.0134 14.4128 13.4094Z" fill="#4CAE48"/>
<path fill-rule="evenodd" clip-rule="evenodd" d="M6.20017 26.1841C6.15324 25.9414 6.10182 25.702 6.06001 25.4572C6.02221 24.9633 5.93641 24.4839 5.80631 24.0394C5.4507 23.2881 5.06551 22.5799 4.65368 21.9201C4.45513 21.5818 4.25471 21.64 4.10742 22.0793C4.05801 22.2176 4.00318 22.35 3.94355 22.4757C3.71216 22.9952 3.71154 22.994 3.36584 22.6756C3.53652 22.3044 3.70782 21.9256 3.88284 21.5533C3.96725 21.2999 4.11206 21.1241 4.27841 21.0732C4.44475 21.0223 4.61558 21.1016 4.74491 21.2897C5.36691 21.992 5.88127 22.945 6.24385 24.0671C6.44597 24.6972 6.47803 25.4492 6.33151 26.1238L6.20017 26.1841Z" fill="#4CAE48"/>
<path fill-rule="evenodd" clip-rule="evenodd" d="M19.9339 8.83312L17.3727 2.73613L17.8301 2.33203C18.2989 3.19734 20.0214 8.40154 19.9339 8.83312Z" fill="#4CAE48"/>
<path fill-rule="evenodd" clip-rule="evenodd" d="M5.74048 3.87186L6.24802 3.4502L8.43851 9.75805L8.28564 9.93044L5.74048 3.87186Z" fill="#4CAE48"/>
<path fill-rule="evenodd" clip-rule="evenodd" d="M20.5986 0.743652C20.7015 3.22437 20.8017 5.63048 20.9013 8.03545L20.7928 8.08485C20.7512 7.99617 20.719 7.89543 20.6977 7.78725C20.5416 5.63705 20.3984 3.48356 20.2334 1.33449C20.1927 0.809539 20.3957 0.86115 20.5986 0.743652Z" fill="#4CAE48"/>
<path fill-rule="evenodd" clip-rule="evenodd" d="M19.3601 9.85259C19.2769 9.79877 19.1913 9.75265 19.1107 9.68898C18.0247 8.8181 16.9424 7.93195 15.8512 7.08192C15.5892 6.87769 15.5525 6.64263 15.7053 6.18799L19.4406 9.61096L19.3601 9.85259Z" fill="#4CAE48"/>
<path fill-rule="evenodd" clip-rule="evenodd" d="M7.77427 11.0726L3.94885 7.99781L4.0376 7.37842C4.80147 7.82213 7.6753 10.5829 7.77427 11.0726Z" fill="#4CAE48"/>
<path fill-rule="evenodd" clip-rule="evenodd" d="M9.10425 9.23235C9.07188 8.84252 9.03641 8.45484 9.00775 8.06387C8.8758 6.25188 8.75406 4.43996 8.61188 2.62797C8.57502 2.15905 8.65184 1.92955 8.96965 1.92627C9.06986 4.34224 9.17038 6.76289 9.27105 9.18838L9.10425 9.23235Z" fill="#4CAE48"/>
<path fill-rule="evenodd" clip-rule="evenodd" d="M36 20.1148H28.3055C28.5516 18.7326 35.7051 18.5705 36 20.1148Z" fill="#4CAE48"/>
<path fill-rule="evenodd" clip-rule="evenodd" d="M31.5529 19.1392H26.1917C26.4244 17.7856 31.2433 17.5682 31.5529 19.1392Z" fill="#4CAE48"/>
<path fill-rule="evenodd" clip-rule="evenodd" d="M27.3496 20.062H32.6918C32.5149 21.3024 27.8203 21.7342 27.3496 20.062Z" fill="#4CAE48"/>
<path fill-rule="evenodd" clip-rule="evenodd" d="M2.06386 23.2884C1.93763 23.4392 1.80257 23.567 1.66101 23.6695C1.42807 23.7681 1.26281 24.1255 1.25816 24.5404C1.2196 24.8974 1.1355 25.235 1.01221 25.5287C0.888927 24.7787 0.799561 24.033 1.16493 23.4422C1.39756 22.9998 1.78569 22.9334 2.06386 23.2884Z" fill="#4CAE48"/>
<path fill-rule="evenodd" clip-rule="evenodd" d="M34.0411 9.11592C34.5282 8.46348 34.5733 7.4412 34.1468 6.71973C34.4913 6.93052 34.7005 7.39743 34.6731 7.89363C34.6895 8.43808 34.4335 8.93327 34.0411 9.11592Z" fill="#4CAE48"/>
<path fill-rule="evenodd" clip-rule="evenodd" d="M0.355861 26.4731C0.191598 27.3444 0.294645 28.2867 0.634394 29.0209C0.336816 28.9045 0.106405 28.5336 0.0388977 28.0623C-0.0702709 27.4802 0.0550519 26.852 0.355861 26.4731Z" fill="#4CAE48"/>
<path fill-rule="evenodd" clip-rule="evenodd" d="M0.752878 26.8721C0.555101 27.4144 0.696884 28.0694 1.08044 28.3854L0.921458 28.5292C0.765876 28.3471 0.628092 28.139 0.511906 27.9099C0.364723 27.5341 0.472511 27.0695 0.752678 26.8721L0.752878 26.8721Z" fill="#4CAE48"/>
<path fill-rule="evenodd" clip-rule="evenodd" d="M33.7475 8.6469C33.934 8.43188 34.0306 8.1438 34.0152 7.84976C33.9995 7.55572 33.8729 7.28138 33.665 7.09082C34.1349 7.20725 34.2886 7.39284 34.2987 7.80244C34.3079 8.19119 34.2307 8.5459 33.7475 8.6469Z" fill="#4CAE48"/>
</svg>
