<svg width="75" height="43" viewBox="0 0 75 43" fill="none" xmlns="http://www.w3.org/2000/svg">
<path fill-rule="evenodd" clip-rule="evenodd" d="M52.9812 0.00375116C53.3617 0.424281 53.7014 0.880087 53.9957 1.36495C54.3539 2.27895 55.2759 2.84362 56.2528 2.74721C57.3095 2.66748 58.3583 2.46212 59.407 2.29212C63.6415 1.72346 67.6161 4.46005 68.5959 8.6185C68.6904 9.20903 68.6416 9.81352 68.4535 10.3812C68.1135 11.4613 67.6468 12.5022 67.2308 13.5588C66.8385 14.55 66.5115 14.6585 65.4957 14.1054L65.6917 13.3666L65.1385 13.0475L64.6835 13.857L59.1168 11.668L59.3926 10.8415L58.7583 10.5879L58.4026 11.3097C57.2585 11.0416 57.095 10.7409 57.503 9.68822C57.9464 8.54403 58.4014 7.40512 58.9141 6.10139C58.2727 6.0029 57.624 5.95916 56.975 5.97066C54.2288 6.27274 51.7993 3.09383 51.5915 1.25137C51.5471 0.859096 51.9248 0.418375 52.1144 0L52.9812 0.00375116ZM67.8884 8.96377C67.8619 8.73064 67.8223 8.49926 67.7693 8.27068C66.6015 4.54936 62.8053 2.31702 58.9855 3.10556C58.0444 3.32241 57.0838 3.44421 56.1181 3.46903C54.9132 3.5581 53.793 2.84482 53.3642 1.71548C53.2595 1.44571 53.1165 1.19247 52.9393 0.96357C52.84 0.847204 52.6098 0.843294 52.4371 0.788383C52.3777 0.932923 52.3423 1.08624 52.3324 1.24219C52.833 3.44509 54.7175 5.06008 56.9708 5.21731C57.9627 5.19329 58.9476 5.38651 59.8568 5.7835C62.4606 6.8624 65.1046 7.86404 67.8833 8.9585L67.8884 8.96377Z" fill="#3A205A"/>
<path fill-rule="evenodd" clip-rule="evenodd" d="M38.4613 19.7281L40.9093 18.2897C41.6234 18.7852 42.3842 19.21 43.1807 19.5581C44.2154 19.8708 45.3321 19.7536 46.2793 19.233C47.2262 18.7123 47.9238 17.8321 48.214 16.7911C48.3407 16.4136 48.5664 16.0771 48.8678 15.8168C49.7662 15.0428 50.6984 14.3118 51.6465 13.5939C51.9489 13.4218 52.058 13.0394 51.8924 12.7335C51.4413 11.5343 51.0227 10.3221 50.6071 9.11123C50.3376 8.32668 50.5496 7.76831 51.1734 7.54205C51.7972 7.31578 52.3294 7.61268 52.6119 8.3855C53.1623 9.90887 53.6843 11.4428 54.2452 12.9622C54.5287 13.5794 54.3036 14.311 53.7223 14.6622C52.6056 15.5161 51.5345 16.4262 50.4165 17.2774C50.041 17.5012 49.8715 17.9557 50.0085 18.3706C50.5732 21.0434 51.1463 23.7189 51.5881 26.4139C51.6769 27.3208 51.6137 28.2361 51.401 29.1221C51.198 29.956 50.9432 30.7766 50.6387 31.5791L54.5421 30.7383C54.8729 30.6664 55.1959 30.5787 55.5359 30.5199C56.0423 30.366 56.5898 30.4327 57.0444 30.7036C57.499 30.9744 57.8182 31.4242 57.9236 31.9427C58.0076 32.4522 57.8789 32.9738 57.5679 33.386C57.2567 33.7981 56.7903 34.0649 56.2772 34.1238C54.2439 34.5763 52.2078 35.0104 50.1732 35.4524C49.6056 35.5766 49.0396 35.7139 48.4732 35.829C47.7919 36.0381 47.051 35.8385 46.5663 35.3154C46.082 34.7923 45.94 34.0381 46.2008 33.3746C46.3809 32.7535 46.5928 32.1402 46.7812 31.5229L46.5877 31.3712C45.8279 32.1649 45.0604 32.9508 44.3204 33.7616C44.2023 33.9433 44.1279 34.1502 44.1033 34.3657C43.5606 36.5978 43.0297 38.8326 42.4844 41.0634C42.4155 41.5744 42.14 42.0347 41.7224 42.3371C41.3048 42.6395 40.7816 42.7577 40.2746 42.664C39.7316 42.5461 39.268 42.1955 39.0065 41.7052C38.7451 41.2149 38.7125 40.6345 38.9172 40.118C39.3957 38.095 40.0313 36.0957 40.3346 34.0466C40.689 32.3295 41.6774 30.8092 43.1031 29.7889C43.7033 29.3629 43.9479 28.5904 43.702 27.8967C43.1197 25.5025 42.7028 23.0676 42.2175 20.6485C42.1863 20.4876 42.1326 20.332 42.0605 20.0757C41.0785 20.6615 40.1539 21.2173 39.2243 21.7652C38.3795 22.2634 38.0801 22.2412 37.3465 21.5874C35.8645 20.2649 34.387 18.9363 32.9137 17.6017C32.2599 17.0146 32.1839 16.4065 32.6653 15.9018C33.1244 15.4206 33.7115 15.452 34.3324 16.0103C35.6969 17.2449 37.0649 18.4754 38.4613 19.7281V19.7281Z" fill="#3A205A"/>
<path fill-rule="evenodd" clip-rule="evenodd" d="M25.6119 21.5536C26.1141 25.8531 28.7936 28.7247 31.3105 31.7611C29.1553 33.4606 26.6307 34.6297 23.9407 35.1739C21.8091 35.5585 19.6174 35.4507 17.5334 34.8588C16.8716 34.6401 16.2426 34.3321 15.6638 33.9434C15.2999 33.7237 15.2843 33.4047 15.6137 33.0424C16.7397 31.8067 17.8367 30.5474 18.9326 29.283C19.1117 29.0977 19.2267 28.8598 19.2608 28.6043C19.287 26.7736 19.2752 24.943 19.2752 23.0939C18.547 23.4706 17.6668 23.8969 16.8154 24.3768C16.3154 24.6911 15.6811 24.6982 15.1744 24.395C13.8457 23.6968 12.4701 23.0874 11.1666 22.3447C10.81 22.0956 10.5916 21.6929 10.5773 21.258C10.6044 20.952 11.0766 20.6134 11.4268 20.4381C11.6164 20.3427 11.9813 20.5192 12.2348 20.6408C13.281 21.1429 14.3272 21.6464 15.3523 22.2009C15.7456 22.4355 16.2382 22.4258 16.6219 22.176C18.1715 21.3797 19.7145 20.5572 21.3203 19.8864C23.9847 18.8831 26.9751 19.2807 29.2849 20.9456C30.1628 21.6705 30.9268 22.523 31.5512 23.4746C31.8832 23.8603 32.2156 24.2461 32.5214 24.6515C32.7107 24.8487 32.8049 25.1185 32.78 25.3907C32.7548 25.6629 32.6127 25.9109 32.3905 26.0702C32.1945 26.2625 31.9238 26.3589 31.6505 26.3337C31.3769 26.3085 31.1282 26.1644 30.9705 25.9396C30.1727 25.0242 29.3685 24.118 28.6352 23.1569C27.9019 22.1958 26.8005 22.0099 25.6119 21.5536V21.5536Z" fill="#3A205A"/>
<path fill-rule="evenodd" clip-rule="evenodd" d="M6.26588 27.3151C6.8252 27.5081 7.36537 27.7533 7.87936 28.0473C9.52828 29.1954 11.1303 30.4142 12.7661 31.578C13.1875 31.8117 13.3583 32.3297 13.1588 32.768C12.4689 34.6938 11.241 36.3811 9.62086 37.6297C9.23074 37.9911 8.62576 37.9831 8.24554 37.6115C6.70517 36.4345 5.11882 35.3204 3.56025 34.1697C2.871 33.7579 2.39979 33.0618 2.27368 32.2688C2.14726 31.476 2.37904 30.6679 2.90643 30.0624C3.2857 29.5289 3.6688 28.9993 4.07297 28.4854C4.61601 27.8152 5.4071 27.3931 6.26588 27.3151V27.3151ZM10.3271 30.6783C9.86391 30.8746 9.43229 31.1391 9.04696 31.4628C8.33982 32.317 7.67962 33.2093 7.06985 34.1358C6.72347 34.6293 6.68548 35.2762 6.97184 35.8069C7.42166 33.7238 8.98311 32.3717 10.3313 30.6783H10.3271ZM8.23454 36.0031C9.18909 34.6955 10.1069 33.4427 11.0082 32.1796C11.0474 32.1233 10.9322 31.9586 10.8773 31.8199C9.7647 32.9 8.04012 35.5127 8.24124 36.0018L8.23454 36.0031Z" fill="#3A205A"/>
<path fill-rule="evenodd" clip-rule="evenodd" d="M47.9242 15.6679C47.9284 17.6539 46.3427 19.2785 44.357 19.3227C42.3444 19.3294 40.6987 17.7207 40.6594 15.7085C40.6709 13.724 42.2579 12.1082 44.242 12.0614C45.2097 12.0478 46.1428 12.421 46.834 13.0982C47.5255 13.7753 47.9178 14.7003 47.9242 15.6679V15.6679ZM44.1214 17.891C44.3934 17.864 44.6586 17.791 44.9061 17.6753C45.1193 17.4791 45.2965 17.2466 45.429 16.9887C45.1988 16.9037 44.9725 16.8005 44.7359 16.739C43.9512 16.5363 43.1745 16.3388 42.3901 16.161C42.1328 16.1192 41.8729 16.0947 41.6121 16.0877C41.6762 16.3741 41.6539 16.7298 41.8199 16.9364C42.4166 17.5662 43.2533 17.9116 44.1204 17.8858L44.1214 17.891Z" fill="#3A205A"/>
<path fill-rule="evenodd" clip-rule="evenodd" d="M20.4695 12.3164C21.4106 12.3185 22.3125 12.6944 22.9762 13.3615C23.6403 14.0285 24.0119 14.9321 24.0093 15.8732C23.9767 17.804 22.4099 19.3564 20.4787 19.3711C18.5202 19.3807 16.9214 17.8069 16.8997 15.8483C16.9163 13.8898 18.5109 12.3121 20.4695 12.3164V12.3164ZM18.3772 16.8501L18.2125 17.058C18.4295 17.3195 18.6138 17.7458 18.8663 17.7915C19.5389 17.9302 20.2307 17.9461 20.9088 17.8386C21.3756 17.6672 21.7928 17.3833 22.1236 17.0122C22.2385 16.9102 22.1836 16.6199 22.2059 16.412C22.0125 16.3766 21.8149 16.3695 21.6192 16.3911C21.1467 16.5671 20.6636 16.7138 20.173 16.8305C19.5731 16.8767 18.971 16.8833 18.3705 16.8502L18.3772 16.8501Z" fill="#3A205A"/>
<path fill-rule="evenodd" clip-rule="evenodd" d="M23.89 35.9035C25.348 35.3804 26.6831 34.8914 28.0275 34.4297C28.228 34.3735 28.4415 34.3845 28.6353 34.4611C30.1176 35.046 31.5957 35.6441 33.07 36.2552C33.5157 36.3957 33.8831 36.7143 34.0852 37.1355C34.2873 37.5567 34.3061 38.0427 34.1369 38.4782C33.9591 38.9087 33.6118 39.2469 33.1766 39.4132C32.7418 39.5795 32.2575 39.5592 31.8377 39.3569C29.459 38.4076 27.087 37.4425 24.722 36.4618C24.4267 36.3039 24.148 36.1168 23.89 35.9035V35.9035Z" fill="#3A205A"/>
<path fill-rule="evenodd" clip-rule="evenodd" d="M15.9158 34.9661L19.1667 35.8304C18.5573 37.7252 17.9415 39.6723 17.302 41.6115C17.0977 42.3942 16.3647 42.92 15.5576 42.8629C14.8071 42.802 14.1897 42.246 14.0514 41.5055C14.0035 41.2942 14.0064 41.0746 14.0604 40.8648C14.6724 38.8824 15.3026 36.9066 15.9158 34.9661V34.9661Z" fill="#3A205A"/>
<path fill-rule="evenodd" clip-rule="evenodd" d="M64.2877 14.1538C64.4996 14.5147 64.5766 14.8168 64.757 14.9018C64.8955 14.9671 65.1637 14.7619 65.4813 14.6402L66.4123 14.9475L65.8893 16.2839L56.618 12.6461L57.141 11.3175L58.0563 11.7163C58.1871 12.0131 58.229 12.3361 58.3688 12.3845C58.5533 12.4499 58.8148 12.3008 59.0357 12.0903L64.2877 14.1538Z" fill="#3A205A"/>
<path fill-rule="evenodd" clip-rule="evenodd" d="M29.7083 15.9674C29.6668 16.5078 29.3775 16.9985 28.9242 17.296C28.4712 17.5934 27.9058 17.6639 27.3937 17.4868C26.3932 17.0763 25.4505 16.5374 24.5888 15.8836C24.3143 15.6835 24.3535 15.0559 24.2424 14.5995C24.9636 14.452 25.7135 14.6278 26.2939 15.0807C26.7377 15.371 27.1546 15.7018 27.6019 15.9961C28.2841 16.4394 28.9865 16.6866 29.7083 15.9674V15.9674Z" fill="#3A205A"/>
<path fill-rule="evenodd" clip-rule="evenodd" d="M12.7801 31.1792C12.6834 30.8902 12.5774 30.6051 12.4912 30.3135C12.4133 29.7254 12.2364 29.1546 11.9683 28.6254C11.2353 27.7307 10.4413 26.8874 9.59241 26.1017C9.18314 25.6989 8.77003 25.7682 8.46643 26.2913C8.36459 26.456 8.25157 26.6137 8.12866 26.7633C7.6517 27.3819 7.65043 27.3805 6.93787 27.0013C7.28968 26.5593 7.64277 26.1082 8.00352 25.665C8.17751 25.3632 8.476 25.1539 8.81888 25.0933C9.16175 25.0327 9.51388 25.1271 9.78045 25.3511C11.0626 26.1873 12.1228 27.3222 12.8701 28.6582C13.2868 29.4086 13.3528 30.304 13.0508 31.1073L12.7801 31.1792Z" fill="#3A205A"/>
<path fill-rule="evenodd" clip-rule="evenodd" d="M41.0885 10.5185L35.8094 3.25853L36.7522 2.77734C37.7186 3.80772 41.2689 10.0046 41.0885 10.5185V10.5185Z" fill="#3A205A"/>
<path fill-rule="evenodd" clip-rule="evenodd" d="M11.8326 4.6105L12.8788 4.1084L17.3939 11.6195L17.0788 11.8248L11.8326 4.6105Z" fill="#3A205A"/>
<path fill-rule="evenodd" clip-rule="evenodd" d="M42.4587 0.885132C42.6707 3.83905 42.8772 6.70415 43.0825 9.56788L42.859 9.6267C42.7731 9.52111 42.7067 9.40115 42.663 9.27234C42.3412 6.71197 42.0459 4.14769 41.7059 1.58867C41.6219 0.963587 42.0405 1.02504 42.4587 0.885132V0.885132Z" fill="#3A205A"/>
<path fill-rule="evenodd" clip-rule="evenodd" d="M39.9058 11.732C39.7344 11.668 39.5578 11.6131 39.3918 11.5372C37.1532 10.5002 34.9223 9.44504 32.6732 8.43286C32.1331 8.18967 32.0574 7.90977 32.3725 7.36841L40.0718 11.4443L39.9058 11.732Z" fill="#3A205A"/>
<path fill-rule="evenodd" clip-rule="evenodd" d="M16.0246 13.1848L8.13953 9.52343L8.32246 8.78589C9.89699 9.31424 15.8206 12.6016 16.0246 13.1848V13.1848Z" fill="#3A205A"/>
<path fill-rule="evenodd" clip-rule="evenodd" d="M18.766 10.9932C18.6993 10.529 18.6262 10.0674 18.5671 9.60184C18.2951 7.4442 18.0442 5.28665 17.7511 3.12901C17.6752 2.57064 17.8335 2.29737 18.4886 2.29346C18.6951 5.17028 18.9023 8.05269 19.1099 10.9408L18.766 10.9932Z" fill="#3A205A"/>
<path fill-rule="evenodd" clip-rule="evenodd" d="M74.2047 23.9514H58.3445C58.8518 22.3056 73.5969 22.1126 74.2047 23.9514V23.9514Z" fill="#3A205A"/>
<path fill-rule="evenodd" clip-rule="evenodd" d="M65.0382 22.7903H53.9874C54.4673 21.1786 64.4 20.9197 65.0382 22.7903V22.7903Z" fill="#3A205A"/>
<path fill-rule="evenodd" clip-rule="evenodd" d="M56.3741 23.8892H67.3856C67.0211 25.3661 57.3443 25.8804 56.3741 23.8892V23.8892Z" fill="#3A205A"/>
<path fill-rule="evenodd" clip-rule="evenodd" d="M4.25401 27.7308C3.99382 27.9104 3.71544 28.0625 3.42365 28.1846C2.9435 28.302 2.60286 28.7276 2.59328 29.2216C2.51379 29.6467 2.34044 30.0487 2.08632 30.3985C1.8322 29.5054 1.64799 28.6175 2.4011 27.9139C2.88061 27.3871 3.68064 27.3081 4.25401 27.7308V27.7308Z" fill="#3A205A"/>
<path fill-rule="evenodd" clip-rule="evenodd" d="M70.1669 10.8546C71.1709 10.0777 71.2638 8.86044 70.3848 8.00134C71.0949 8.25235 71.5261 8.80832 71.4695 9.39917C71.5033 10.0475 70.9758 10.6371 70.1669 10.8546V10.8546Z" fill="#3A205A"/>
<path fill-rule="evenodd" clip-rule="evenodd" d="M0.733516 31.5232C0.394929 32.5607 0.607334 33.6827 1.30764 34.5569C0.694259 34.4184 0.219327 33.9767 0.0801776 33.4155C-0.144845 32.7224 0.113475 31.9743 0.733516 31.5232V31.5232Z" fill="#3A205A"/>
<path fill-rule="evenodd" clip-rule="evenodd" d="M1.55189 31.9979C1.14422 32.6436 1.43647 33.4236 2.22707 33.7998L1.89937 33.9711C1.57868 33.7542 1.29468 33.5064 1.05519 33.2336C0.75181 32.7861 0.973986 32.2329 1.55148 31.9978L1.55189 31.9979Z" fill="#3A205A"/>
<path fill-rule="evenodd" clip-rule="evenodd" d="M69.5617 10.2963C69.946 10.0402 70.1452 9.69721 70.1134 9.34707C70.0812 8.99694 69.8201 8.67026 69.3917 8.44336C70.3601 8.58199 70.677 8.80299 70.6979 9.29072C70.7169 9.75363 70.5577 10.176 69.5617 10.2963V10.2963Z" fill="#3A205A"/>
</svg>
