<svg width="46" height="46" viewBox="0 0 46 46" fill="none" xmlns="http://www.w3.org/2000/svg">
<path fill-rule="evenodd" clip-rule="evenodd" d="M23.0478 13.1457C24.8768 13.1457 26.7073 13.1365 28.5362 13.1549C28.8846 13.1602 29.2273 13.2276 29.5411 13.3523C32.9692 14.8127 35.9721 16.8679 38.3427 19.3762C41.6938 22.6404 44.0997 26.4894 45.3784 30.6322C46.2429 33.0266 46.2049 35.5806 45.2691 37.9569C44.1007 40.4086 41.8111 42.385 38.8922 43.4614C35.8325 44.7062 32.5129 45.4599 29.1109 45.6821C26.2162 45.9069 23.3094 46.0117 20.4018 45.996C16.2173 46.0546 12.0596 45.4337 8.16651 44.1689C4.97424 43.2255 2.38795 41.2498 1.00609 38.699C0.00422056 36.7066 -0.25677 34.514 0.256229 32.3993C1.83551 25.0627 6.92401 18.5552 14.3809 14.3357C15.7351 13.4406 17.4546 13.0072 19.1853 13.1249C20.4715 13.1863 21.7607 13.1932 23.0477 13.1457H23.0478Z" fill="#4CAE48"/>
<path fill-rule="evenodd" clip-rule="evenodd" d="M28.9955 10.6598H17.0629C16.798 8.17011 14.8849 6.57728 12.6327 5.21645C11.443 4.53135 10.2041 3.90615 8.92287 3.34429C7.88575 2.86416 7.7316 2.30552 8.58369 1.61298C9.52124 0.927661 10.6753 0.475049 11.9123 0.307541C14.8569 -0.164831 17.8932 -0.0823538 20.7937 0.548773C22.8778 0.927361 24.9773 1.25399 27.0811 1.54487C28.9462 1.70296 30.831 1.53822 32.6143 1.06125C33.8981 0.795782 35.1524 0.433344 36.4138 0.0963202C37.1342 -0.0952811 37.6009 -0.00755556 37.8728 0.418356C38.1448 0.844268 37.992 1.23208 37.3851 1.59336C34.9141 2.99232 32.7298 4.70667 30.9141 6.67193C29.816 7.81867 29.149 9.20484 28.9955 10.6598V10.6598Z" fill="#4CAE48"/>
<path d="M15.4223 22.5645H23.8315L15.4223 29.4898H23.8315V36.4151H32.2406" stroke="#006769" stroke-width="2.31581"/>
</svg>
